<?xml version="1.0" encoding="utf-8"?>
<!-- Generator: Adobe Illustrator 16.0.5, SVG Export Plug-In . SVG Version: 6.00 Build 0)  -->
<!DOCTYPE svg PUBLIC "-//W3C//DTD SVG 1.1//EN" "http://www.w3.org/Graphics/SVG/1.1/DTD/svg11.dtd">
<svg version="1.1" id="Layer_1" xmlns="http://www.w3.org/2000/svg" xmlns:xlink="http://www.w3.org/1999/xlink" x="0px" y="0px"
	 width="700px" height="250px" viewBox="0 0 700 250" enable-background="new 0 0 700 250" xml:space="preserve">
<rect fill="#7084B7" width="700" height="250"/>
<path fill="#526998" d="M425.062,232.11c0,4.089-3.312,7.411-7.396,7.411H246.762c-4.086,0-7.395-3.322-7.395-7.411V21.122
	c0-4.096,3.309-7.411,7.395-7.411h170.904c4.084,0,7.396,3.315,7.396,7.411V232.11z"/>
<rect x="253.54" y="67.786" fill="#7084B7" width="166.26" height="166.254"/>
<rect x="239.367" y="33.331" fill="#7084B7" width="185.695" height="19.911"/>
<path fill="#7084B7" d="M268.083,23.396c0,2.707-2.201,4.898-4.898,4.898c-2.717,0-4.905-2.191-4.905-4.898
	c0-2.705,2.188-4.899,4.905-4.899C265.882,18.497,268.083,20.691,268.083,23.396"/>
<path fill="#7084B7" d="M406.141,23.396c0,2.707-2.191,4.898-4.905,4.898c-2.703,0-4.894-2.191-4.894-4.898
	c0-2.705,2.19-4.899,4.894-4.899C403.949,18.497,406.141,20.691,406.141,23.396"/>
<rect x="249.085" y="63.332" fill="#526998" width="166.257" height="166.26"/>
<rect x="249.085" y="63.332" fill="none" stroke="#7084B7" stroke-width="1.857" stroke-miterlimit="10" width="166.257" height="166.26"/>
<path fill="#7084B7" d="M279.764,184.235c0,0.546-0.448,0.984-0.991,0.984h-13.967c-0.549,0-0.993-0.438-0.993-0.984v-13.971
	c0-0.55,0.444-0.987,0.993-0.987h13.967c0.543,0,0.991,0.438,0.991,0.987V184.235z"/>
<path fill="#7084B7" d="M340.368,125.588c0,0.544-0.443,0.987-0.991,0.987h-13.966c-0.549,0-0.994-0.443-0.994-0.987v-13.971
	c0-0.55,0.445-0.99,0.994-0.99h13.966c0.548,0,0.991,0.44,0.991,0.99V125.588z"/>
<path fill="#7084B7" d="M360.747,125.588c0,0.544-0.442,0.987-0.981,0.987H345.79c-0.548,0-0.991-0.443-0.991-0.987v-13.971
	c0-0.55,0.443-0.99,0.991-0.99h13.976c0.539,0,0.981,0.44,0.981,0.99V125.588z"/>
<path fill="#7084B7" d="M360.747,105.308c0,0.546-0.442,0.985-0.981,0.985H345.79c-0.548,0-0.991-0.439-0.991-0.985V91.339
	c0-0.549,0.443-0.993,0.991-0.993h13.976c0.539,0,0.981,0.444,0.981,0.993V105.308z"/>
<path fill="#7084B7" d="M299.845,125.588c0,0.544-0.442,0.987-0.994,0.987h-13.966c-0.545,0-0.991-0.443-0.991-0.987v-13.971
	c0-0.55,0.446-0.99,0.991-0.99h13.966c0.552,0,0.994,0.44,0.994,0.99V125.588z"/>
<path fill="#7084B7" d="M320.104,125.588c0,0.544-0.435,0.987-0.987,0.987h-13.966c-0.551,0-0.993-0.443-0.993-0.987v-13.971
	c0-0.55,0.442-0.99,0.993-0.99h13.966c0.552,0,0.987,0.44,0.987,0.99V125.588z"/>
<path fill="#7084B7" d="M340.368,145.133c0,0.546-0.443,0.994-0.991,0.994h-13.966c-0.549,0-0.994-0.448-0.994-0.994v-13.969
	c0-0.546,0.445-0.984,0.994-0.984h13.966c0.548,0,0.991,0.438,0.991,0.984V145.133z"/>
<path fill="#7084B7" d="M360.747,145.133c0,0.546-0.442,0.994-0.981,0.994H345.79c-0.548,0-0.991-0.448-0.991-0.994v-13.969
	c0-0.546,0.443-0.984,0.991-0.984h13.976c0.539,0,0.981,0.438,0.981,0.984V145.133z"/>
<path fill="#7084B7" d="M299.845,145.133c0,0.546-0.442,0.994-0.994,0.994h-13.966c-0.545,0-0.991-0.448-0.991-0.994v-13.969
	c0-0.546,0.446-0.984,0.991-0.984h13.966c0.552,0,0.994,0.438,0.994,0.984V145.133z"/>
<path fill="#7084B7" d="M320.104,145.133c0,0.546-0.435,0.994-0.987,0.994h-13.966c-0.551,0-0.993-0.448-0.993-0.994v-13.969
	c0-0.546,0.442-0.984,0.993-0.984h13.966c0.552,0,0.987,0.438,0.987,0.984V145.133z"/>
<path fill="#7084B7" d="M340.368,164.688c0,0.54-0.443,0.992-0.991,0.992h-13.966c-0.549,0-0.994-0.452-0.994-0.992v-13.971
	c0-0.549,0.445-0.991,0.994-0.991h13.966c0.548,0,0.991,0.442,0.991,0.991V164.688z"/>
<path fill="#7084B7" d="M360.747,164.688c0,0.54-0.442,0.992-0.981,0.992H345.79c-0.548,0-0.991-0.452-0.991-0.992v-13.971
	c0-0.549,0.443-0.991,0.991-0.991h13.976c0.539,0,0.981,0.442,0.981,0.991V164.688z"/>
<path fill="#7084B7" d="M299.845,164.688c0,0.54-0.442,0.992-0.994,0.992h-13.966c-0.545,0-0.991-0.452-0.991-0.992v-13.971
	c0-0.549,0.446-0.991,0.991-0.991h13.966c0.552,0,0.994,0.442,0.994,0.991V164.688z"/>
<path fill="#7084B7" d="M320.104,164.688c0,0.54-0.435,0.992-0.987,0.992h-13.966c-0.551,0-0.993-0.452-0.993-0.992v-13.971
	c0-0.549,0.442-0.991,0.993-0.991h13.966c0.552,0,0.987,0.442,0.987,0.991V164.688z"/>
<path fill="#7084B7" d="M340.368,184.235c0,0.546-0.443,0.984-0.991,0.984h-13.966c-0.549,0-0.994-0.438-0.994-0.984v-13.971
	c0-0.55,0.445-0.987,0.994-0.987h13.966c0.548,0,0.991,0.438,0.991,0.987V184.235z"/>
<path fill="#7084B7" d="M360.747,184.235c0,0.546-0.442,0.984-0.981,0.984H345.79c-0.548,0-0.991-0.438-0.991-0.984v-13.971
	c0-0.55,0.443-0.987,0.991-0.987h13.976c0.539,0,0.981,0.438,0.981,0.987V184.235z"/>
<path fill="#7084B7" d="M380.677,125.588c0,0.544-0.442,0.987-0.987,0.987h-13.974c-0.552,0-0.987-0.443-0.987-0.987v-13.971
	c0-0.55,0.436-0.99,0.987-0.99h13.974c0.545,0,0.987,0.44,0.987,0.99V125.588z"/>
<path fill="#7084B7" d="M380.677,145.133c0,0.546-0.442,0.994-0.987,0.994h-13.974c-0.552,0-0.987-0.448-0.987-0.994v-13.969
	c0-0.546,0.436-0.984,0.987-0.984h13.974c0.545,0,0.987,0.438,0.987,0.984V145.133z"/>
<path fill="#7084B7" d="M380.677,164.688c0,0.54-0.442,0.992-0.987,0.992h-13.974c-0.552,0-0.987-0.452-0.987-0.992v-13.971
	c0-0.549,0.436-0.991,0.987-0.991h13.974c0.545,0,0.987,0.442,0.987,0.991V164.688z"/>
<path fill="#7084B7" d="M400.605,125.588c0,0.544-0.445,0.987-0.994,0.987h-13.962c-0.55,0-0.993-0.443-0.993-0.987v-13.971
	c0-0.55,0.443-0.99,0.993-0.99h13.962c0.549,0,0.994,0.44,0.994,0.99V125.588z"/>
<path fill="#7084B7" d="M380.677,105.308c0,0.546-0.442,0.985-0.987,0.985h-13.974c-0.552,0-0.987-0.439-0.987-0.985V91.339
	c0-0.549,0.436-0.993,0.987-0.993h13.974c0.545,0,0.987,0.444,0.987,0.993V105.308z"/>
<path fill="#7084B7" d="M400.605,105.308c0,0.546-0.445,0.985-0.994,0.985h-13.962c-0.55,0-0.993-0.439-0.993-0.985V91.339
	c0-0.549,0.443-0.993,0.993-0.993h13.962c0.549,0,0.994,0.444,0.994,0.993V105.308z"/>
<path fill="#7084B7" d="M400.605,145.133c0,0.546-0.445,0.994-0.994,0.994h-13.962c-0.55,0-0.993-0.448-0.993-0.994v-13.969
	c0-0.546,0.443-0.984,0.993-0.984h13.962c0.549,0,0.994,0.438,0.994,0.984V145.133z"/>
<path fill="#7084B7" d="M400.605,164.688c0,0.54-0.445,0.992-0.994,0.992h-13.962c-0.55,0-0.993-0.452-0.993-0.992v-13.971
	c0-0.549,0.443-0.991,0.993-0.991h13.962c0.549,0,0.994,0.442,0.994,0.991V164.688z"/>
<path fill="#7084B7" d="M299.845,184.235c0,0.546-0.442,0.984-0.994,0.984h-13.966c-0.545,0-0.991-0.438-0.991-0.984v-13.971
	c0-0.55,0.446-0.987,0.991-0.987h13.966c0.552,0,0.994,0.438,0.994,0.987V184.235z"/>
<path fill="#7084B7" d="M320.104,184.235c0,0.546-0.435,0.984-0.987,0.984h-13.966c-0.551,0-0.993-0.438-0.993-0.984v-13.971
	c0-0.55,0.442-0.987,0.993-0.987h13.966c0.552,0,0.987,0.438,0.987,0.987V184.235z"/>
<path fill="#7084B7" d="M279.764,145.133c0,0.546-0.448,0.994-0.991,0.994h-13.967c-0.549,0-0.993-0.448-0.993-0.994v-13.969
	c0-0.546,0.444-0.984,0.993-0.984h13.967c0.543,0,0.991,0.438,0.991,0.984V145.133z"/>
<path fill="#7084B7" d="M279.764,125.588c0,0.544-0.448,0.987-0.991,0.987h-13.967c-0.549,0-0.993-0.443-0.993-0.987v-13.971
	c0-0.55,0.444-0.99,0.993-0.99h13.967c0.543,0,0.991,0.44,0.991,0.99V125.588z"/>
<path fill="#7084B7" d="M279.764,164.688c0,0.54-0.448,0.992-0.991,0.992h-13.967c-0.549,0-0.993-0.452-0.993-0.992v-13.971
	c0-0.549,0.444-0.991,0.993-0.991h13.967c0.543,0,0.991,0.442,0.991,0.991V164.688z"/>
<path fill="#7084B7" d="M340.368,105.308c0,0.546-0.443,0.985-0.991,0.985h-13.966c-0.549,0-0.994-0.439-0.994-0.985V91.339
	c0-0.549,0.445-0.993,0.994-0.993h13.966c0.548,0,0.991,0.444,0.991,0.993V105.308z"/>
<path fill="#7084B7" d="M320.104,105.308c0,0.546-0.435,0.985-0.987,0.985h-13.966c-0.551,0-0.993-0.439-0.993-0.985V91.339
	c0-0.549,0.442-0.993,0.993-0.993h13.966c0.552,0,0.987,0.444,0.987,0.993V105.308z"/>
<polygon fill="#526998" points="321.638,111.559 319.179,109.097 312.129,116.146 305.087,109.097 302.623,111.559 309.669,118.601 
	302.623,125.647 305.087,128.11 312.129,121.063 319.179,128.11 321.638,125.647 314.592,118.601 "/>
<rect x="144.105" y="88.16" transform="matrix(0.9894 0.1454 -0.1454 0.9894 18.4358 -21.9852)" fill="#F9D5B7" width="31.045" height="53.948"/>
<path fill="#F9D5B7" d="M201.294,79.413c0,14.563-3.983,28.787-7.921,33.41c-4.837,5.681-13.218,3.598-27.342,4.982
	c-17.573,1.725-30.366-20.491-28.495-42.955c1.866-22.463,17.65-39.652,35.261-38.394C190.402,37.719,201.294,56.884,201.294,79.413
	"/>
<path fill="#F9D5B7" d="M198.819,89.706c0,0,7.983-2.534,5.482-4.931c-2.838-2.712-3.34-8.75-3.34-8.75L198.819,89.706z"/>
<polygon fill="#5C524F" points="167.917,68.536 167.917,80.644 158.656,80.644 "/>
<path fill="#5C524F" d="M190.712,40.701c0,0,9.562,13.242-7.562,30.139c0,0,9.279-11.854,2.965-24.202L190.712,40.701z"/>
<path fill="#5C524F" d="M190.712,40.701c0,0,5.453,11.188-15.097,27.626c-20.549,16.441-18.956,24.433-15.986,31.054
	c2.971,6.621,9.365,20.104,3.655,31.399c0,0-9.525,23.062-43.464,6.107c0,0,12.338-3.239,12.214-11.25
	c-0.124-8.01-13.467-8.335-7.744-19.757c6.571-13.121-9.983-25.908,8.854-40.521c0,0,0.752-23.795,20.926-31.077
	C174.245,26.999,190.712,40.701,190.712,40.701"/>
<path fill="#ECAA54" d="M179.55,269.763c0,0-12.253,7.844-72.386,1.965c-20.943-1.415-3.467-22.107-0.876-35.218
	c0,0,6.745-33.013,10.195-61.028c3.453-28.017,18.472-56.758,38.558-54.792c20.084,1.967,32.554,29.643,35.261,47.508
	s-8.94,56.829-6.676,70.088C185.887,251.543,187.102,267.206,179.55,269.763"/>
<path fill="#E58636" d="M106.009,236.463c0,0,6.742-33.012,10.195-61.027c2.735-22.179,12.717-44.808,26.723-52.303
	c-6.657,8.175-20.731,18.164-24.068,68.067c-2.613,39.171-15.941,63.007,4.973,81.873c-5.179-0.339-10.808-0.793-16.946-1.394
	C85.941,270.266,103.417,249.572,106.009,236.463"/>
<path fill="#F9D5B7" d="M249.903,197.718l15.553-4.677l14.134-1.068c0,0,7.918,2.131,9.812,2.387
	c1.895,0.258,6.254,5.123,24.587,10.173c2.659,1.944-6.343,2.595-4.939,3.728c3.573,2.888-1.002,4.09-11.006-0.267
	c-3.994-1.739-11.556-1.195-12.617-0.32C285.427,207.673,262.201,213.437,249.903,197.718"/>
<path fill="#ECAA54" d="M264.89,198.14v-9.026l-55.895-10.692l-56.619-43.171c0,0-9.563-0.424-15.008,10.443
	c-0.362,0.721-0.665,1.446-0.921,2.168c-3.608,10.173,2.582,20.185,2.582,20.185s54.635,31.951,67.287,34.526
	c12.654,2.574,58.574,6.504,58.574,6.504V198.14z"/>
<path fill="#E58636" d="M203.044,190.716c-14.607-5.367-54.329-33.91-66.597-42.854c-3.609,10.173,2.581,20.186,2.581,20.186
	s54.635,31.95,67.29,34.525c12.651,2.574,58.571,6.505,58.571,6.505v-10.938C253.412,197.601,217.33,195.965,203.044,190.716"/>
<path fill="#333333" d="M521.194,35.159c0,0-23.513-9.47-33.663,0.279c-3.586,1.158-9.386,4.519-10.988,12.684
	c-6.082,10.016-10.137,22.715-8.655,32.946c2.099,14.499,0.933,18.285-3.306,21.08c-4.233,2.797,14.49,0.043,14.49,0.043
	l-1.916,6.908c0,0,24.756-4.559,31.454-14.393c6.696-9.831,8.166,5.277,8.166,5.277s18.002-25.168,15.063-39.359
	C528.903,46.434,521.194,35.159,521.194,35.159"/>
<rect x="496.728" y="83.509" transform="matrix(0.9405 -0.3399 0.3399 0.9405 -6.0463 179.3849)" fill="#D5A563" width="24.732" height="46.889"/>
<path fill="#D5A563" d="M530.481,77.62c-6.216,25.771-5.833,37.321-34.926,30.304c-14.415-3.476-22.147-22.68-17.269-42.895
	c4.875-20.212,20.513-33.78,34.927-30.306C527.629,38.202,535.357,57.407,530.481,77.62"/>
<path fill="#D5A563" d="M479.035,71.013L472.4,85.211c0,0,1.657,1.926,7.774,1.874"/>
<path fill="#333333" d="M491.807,48c0,0-1.31,11.048,6.3,18.141c0,0,5.572,8.298,2.706,19.987
	c-2.844,13.662-9.96,22.78-10.147,29.182c0,0,3.853-1.839,9.791-3.552c5.778-1.666,7.575-8.669,6.653-6.969
	c-0.808,1.499-0.293,5.698,0.599,5.11c4.887-3.231,15.104-4.116,20.048-9.362l-1.578,6.057c0,0,10.596-3.144,12.393-7.796
	c0,0,0.237,1.417-1.091,5.506c-0.323,0.991,7.668-3.92,9.83-12.896c2.01-8.334,0.159-13.206-1.933-23.534
	c-1.084-5.348,5.84-21.485-10.955-32.659c-10.401-6.92-25.879-8.789-34.548-5.197c-8.666,3.593-10.245,5.927-12.366,10.503
	C485.383,45.095,491.807,48,491.807,48"/>
<path fill="#C6B298" d="M523.662,110.481c0,0,34.458,10.927,52.236,55.433c22.326,55.884,24.688,99.301,24.688,99.301l-67.223,4.452
	l-2.968-62.59c0,0-21.415-18.999-22.827-26.677c-1.408-7.677-5.09-48.301-5.09-48.301L523.662,110.481z"/>
<polygon fill="#E5E5E5" points="521.259,104.237 502.479,132.1 515.584,120.79 528.693,116.832 "/>
<path fill="#988675" d="M600.586,265.216c0,0-0.012-0.283-0.052-0.823l-57.28,0.205c0,0-5.611-50.004-7.087-56.261
	c-1.913-8.131-4.783-10.35-4.783-10.35c-10.098-3.151-17.928-11.281-23.939-18.308c0.041,0.263,0.086,0.506,0.124,0.721
	c1.412,7.676,22.827,26.676,22.827,26.676l2.604,65.34l47.949-2.433L600.586,265.216z"/>
<rect x="566.309" y="240.402" fill="#636363" width="7.982" height="9.598"/>
<rect x="530.76" y="235.316" fill="#424242" width="44.704" height="7.51"/>
<path fill="#424242" d="M612.099,137.208l-20.633,161.48l10.313,2.439l19.746-153.26c0,0,2.547-1.648,2.547-4.933
	c0-3.287-1.176-5.728-1.176-5.728H612.099z"/>
<path fill="#424242" d="M83.708,137.051l21.323,161.391l-9.543,10.367L74.33,147.752c0,0-2.555-1.636-2.569-4.921
	c-0.009-3.286,1.151-5.733,1.151-5.733L83.708,137.051z"/>
<polygon fill="#636363" points="120.771,240.084 120.814,250 128.795,250 128.751,240.05 "/>
<rect x="221.575" y="196.905" fill="#808080" width="276.543" height="53.095"/>
<path fill="#D5A563" d="M453.656,191.989l-11.614-4.632l-10.554-1.06c0,0-5.914,2.112-7.327,2.365
	c-1.415,0.255-4.671,5.072-18.36,10.075c-1.986,1.925,4.735,2.567,3.688,3.69c-2.668,2.859,0.748,4.05,8.219-0.264
	c2.98-1.723,8.629-1.183,9.421-0.318C427.128,201.847,444.472,207.555,453.656,191.989"/>
<path fill="#C6B298" d="M442.463,192.406v-8.938l41.74-10.588l42.28-42.754c0,0,7.141-0.419,11.207,10.343
	c0.271,0.713,0.496,1.432,0.688,2.146c2.693,10.074-1.928,19.99-1.928,19.99s-40.797,31.641-50.245,34.191
	c-9.449,2.55-43.742,6.441-43.742,6.441V192.406z"/>
<path fill="#988675" d="M488.647,185.055c10.905-5.315,40.568-33.581,49.73-42.44c2.693,10.074-1.928,19.99-1.928,19.99
	s-40.797,31.642-50.248,34.191c-9.447,2.55-43.738,6.441-43.738,6.441v-10.831C451.036,191.873,477.98,190.253,488.647,185.055"/>
<rect x="221.575" y="196.906" fill="#666666" width="276.543" height="15.869"/>
<path fill="#E7C19B" d="M197.591,68.06c-1.152-1.791-5.079-2.258-7.551-1.804c-2.419,0.444-3.87,2.495-3.87,2.495
	s2.29-1.321,4.148-1.419c2.942-0.153,5.619,1.066,6.252,1.606C197.208,69.48,197.984,68.669,197.591,68.06"/>
<path fill="#E7C19B" d="M187.98,73.951c0,0,2.06-0.535,4.382-0.535c2.327,0,4.348,0.535,4.348,0.535s-1.171-3.521-4.366-3.521
	C189.147,70.431,187.98,73.951,187.98,73.951"/>
<path fill="none" stroke="#E7C19B" stroke-width="1.359" stroke-miterlimit="10" d="M198.851,96.911c0,0-3.196,2.085-6.255,1.238
	c-4.057-1.124-6.25-4.888-6.25-4.888"/>
<path fill="#B9894A" d="M479.832,62.142c1.05-1.631,4.625-2.054,6.874-1.641c2.204,0.403,3.526,2.271,3.526,2.271
	s-2.084-1.203-3.777-1.292c-2.678-0.139-5.117,0.972-5.694,1.465C480.182,63.438,479.473,62.697,479.832,62.142"/>
<path fill="#B9894A" d="M488.584,67.509c0,0-1.877-0.488-3.992-0.488c-2.117,0-3.958,0.488-3.958,0.488s1.067-3.206,3.976-3.206
	C487.522,64.303,488.584,67.509,488.584,67.509"/>
<path fill="none" stroke="#B9894A" stroke-width="1.237" stroke-miterlimit="10" d="M480.737,92.528c0,0,2.911,1.897,5.696,1.127
	c3.695-1.024,5.695-4.451,5.695-4.451"/>
<rect x="120.771" y="235.316" fill="#424242" width="44.704" height="7.51"/>
</svg>
